<svg width="56" height="56" viewBox="0 0 56 56" fill="none" xmlns="http://www.w3.org/2000/svg">
<g clip-path="url(#clip0_785_4231)">
<path d="M16 32L24.2 38.56C24.4202 38.7414 24.6781 38.8714 24.9549 38.9405C25.2316 39.0097 25.5203 39.0164 25.8 38.96C26.0823 38.907 26.3499 38.7939 26.5846 38.6282C26.8193 38.4626 27.0155 38.2483 27.16 38L40 16" stroke="#76C045" stroke-width="2.57143" stroke-linecap="round" stroke-linejoin="round"/>
<path d="M28 54C42.3594 54 54 42.3594 54 28C54 13.6406 42.3594 2 28 2C13.6406 2 2 13.6406 2 28C2 42.3594 13.6406 54 28 54Z" stroke="#76C045" stroke-width="2.57143" stroke-linecap="round" stroke-linejoin="round"/>
</g>
<defs>
<clipPath id="clip0_785_4231">
<rect width="56" height="56" fill="white"/>
</clipPath>
</defs>
</svg>
